<svg xmlns="http://www.w3.org/2000/svg" data-name="Layer 1" viewBox="0 0 38.81 39.83"><path d="M11.84 35.59a2.31 2.31 0 0 1-1.72-2.25v-27A2.33 2.33 0 0 1 12.43 4h13.15a2.8 2.8 0 0 1 1.11.23A2.16 2.16 0 0 1 28 6.39v27a1 1 0 0 1 0 .17 2.23 2.23 0 0 1-1.64 2.06Zm0-17.44V28c0 .39 0 .39.39.39h13.65c.4 0 .4 0 .4-.41V8.31c0-.41 0-.41-.41-.41H12.21c-.41 0-.41 0-.41.43ZM19 6.54h3.12c.36 0 .49-.17.48-.59s-.11-.52-.46-.52H15.9a.5.5 0 0 0-.27.06.76.76 0 0 0-.14.77.45.45 0 0 0 .49.29Zm0 24A1.47 1.47 0 0 0 17.56 32a1.53 1.53 0 0 0 1.49 1.48 1.52 1.52 0 0 0 1.46-1.5A1.46 1.46 0 0 0 19 30.49Z" style="fill:#593034"/></svg>