<svg xmlns="http://www.w3.org/2000/svg" id="Layer_1" data-name="Layer 1" viewBox="0 0 38.81 39.83"><defs><style>.cls-1{fill:#593034}</style></defs><path d="M5.82 20.87V19l.12-.91A13.64 13.64 0 0 1 17 6.55c.47-.08.94-.14 1.41-.21h1.91a.7.7 0 0 0 .2 0 13.56 13.56 0 0 1 12.27 15.8 13.61 13.61 0 0 1-15.28 11.22 13 13 0 0 1-7-3.17A13.34 13.34 0 0 1 6 22.31c0-.48-.11-.96-.18-1.44m13.59-9.79h-1c-1.19 0-2.39 0-3.56.17A4.35 4.35 0 0 0 11 14.37a6.1 6.1 0 0 0-.33 1.84c-.06 2.07-.06 4.15-.05 6.23a14.5 14.5 0 0 0 .14 2.08 4.55 4.55 0 0 0 2.44 3.54 5.9 5.9 0 0 0 2.61.6c1.47 0 3 .06 4.42.05a36 36 0 0 0 3.77-.17 4.42 4.42 0 0 0 3.73-2.83 5.7 5.7 0 0 0 .41-2.12c0-2 .05-4.08.05-6.12a19 19 0 0 0-.19-2.11 4.64 4.64 0 0 0-4.45-4.14c-1.35-.07-2.75-.1-4.14-.14" class="cls-1"/><path d="M19 12.67c1.64 0 2.89.05 4.14.1a3.35 3.35 0 0 1 2.63 1.15 3.4 3.4 0 0 1 .75 2.19c0 2.24.05 4.47.05 6.71a8 8 0 0 1-.18 1.76A3 3 0 0 1 23.66 27c-.94.08-1.9.11-2.85.11-1.72 0-3.45 0-5.17-.06A3.35 3.35 0 0 1 13 25.92a3.47 3.47 0 0 1-.76-2.19c0-2.24-.05-4.49-.05-6.73a8.5 8.5 0 0 1 .17-1.74 3 3 0 0 1 2.77-2.43c1.43-.11 2.87-.12 3.87-.16m-4.13 7.26a4.51 4.51 0 1 0 4.49-4.52 4.5 4.5 0 0 0-4.47 4.52Zm10.27-4.73a1 1 0 1 0-1 1.06 1 1 0 0 0 1-1.06" class="cls-1"/><path d="M22.33 19.91A2.94 2.94 0 1 1 19.4 17a2.93 2.93 0 0 1 2.93 2.91" class="cls-1"/></svg>