<svg xmlns="http://www.w3.org/2000/svg" xmlns:xlink="http://www.w3.org/1999/xlink" id="Layer_1" data-name="Layer 1" viewBox="0 0 453.45 459.56"><defs><linearGradient id="linear-gradient" x1="123.12" x2="147.98" y1="301.42" y2="301.42" gradientUnits="userSpaceOnUse"><stop offset="0" stop-color="#d39848"/><stop offset=".89" stop-color="#a86828"/></linearGradient><linearGradient id="linear-gradient-2" x1="128.93" x2="163.45" y1="176.67" y2="176.67" gradientUnits="userSpaceOnUse"><stop offset=".11" stop-color="#a86828"/><stop offset="1" stop-color="#d39848"/></linearGradient><linearGradient xlink:href="#linear-gradient-2" id="linear-gradient-3" x1="161.37" x2="222.79" y1="151.93" y2="151.93"/><linearGradient id="linear-gradient-4" x1="108.27" x2="152.37" y1="173.18" y2="173.18" gradientUnits="userSpaceOnUse"><stop offset=".21" stop-color="#ffc63a"/><stop offset=".52" stop-color="#fbc237"/><stop offset=".81" stop-color="#efb72d"/><stop offset="1" stop-color="#e4ac24"/></linearGradient><linearGradient id="linear-gradient-5" x1="149.2" x2="235.97" y1="184.36" y2="184.36" gradientUnits="userSpaceOnUse"><stop offset=".01" stop-color="#ffc63a"/><stop offset=".28" stop-color="#fbc237"/><stop offset=".54" stop-color="#efb72c"/><stop offset=".68" stop-color="#e6ae24"/><stop offset="1" stop-color="#e4ac24"/></linearGradient><linearGradient xlink:href="#linear-gradient-2" id="linear-gradient-6" x1="338.3" x2="404.7" y1="185.04" y2="138.38"/><linearGradient xlink:href="#linear-gradient-2" id="linear-gradient-7" x1="370.16" x2="280.43" y1="141.97" y2="206.58"/><linearGradient id="linear-gradient-8" x1="194.58" x2="333.66" y1="222.96" y2="223.85" gradientUnits="userSpaceOnUse"><stop offset=".13" stop-color="#d39848"/><stop offset=".4" stop-color="#c78a3f"/><stop offset=".89" stop-color="#a86828"/></linearGradient><linearGradient xlink:href="#linear-gradient-2" id="linear-gradient-9" x1="427.05" x2="340.9" y1="63.18" y2="91"/><linearGradient xlink:href="#linear-gradient" id="linear-gradient-10" x1="262.14" x2="287.2" y1="283.74" y2="283.74"/><linearGradient id="linear-gradient-11" x1="247" x2="410.31" y1="185.85" y2="183.46" gradientUnits="userSpaceOnUse"><stop offset=".02" stop-color="#a86828"/><stop offset=".18" stop-color="#b67732"/><stop offset=".43" stop-color="#c68a3e"/><stop offset=".7" stop-color="#d09446"/><stop offset="1" stop-color="#d39848"/></linearGradient><linearGradient xlink:href="#linear-gradient-4" id="linear-gradient-12" x1="262.06" x2="385.92" y1="172.45" y2="172.45"/><linearGradient xlink:href="#linear-gradient-4" id="linear-gradient-13" x1="222.79" x2="372.63" y1="192.94" y2="192.94"/><clipPath id="clip-path"><path d="M92.48 368.2c-2 .36-6.92 3.18-5.4 5.73a14.6 14.6 0 0 1 1.8 8.71c-.34 5-2 10.16-5.79 13.6-3.34 3-8.34 4.8-12.35 1.94-1.6-1.15-2.56-3-4.3-4a8.05 8.05 0 0 0-3.75-.84 19 19 0 0 0-4.19.35 3.63 3.63 0 0 0-1.8.73c-1 .88-.91 2.44-.57 3.72A16.45 16.45 0 0 0 66.28 409c.42.16.85.3 1.28.43a21.26 21.26 0 0 0 13.78-.88 27.27 27.27 0 0 0 13.87-12.59c4.2-8.42 4.65-21.41-.35-26.9a2.1 2.1 0 0 0-2.38-.86m-14.72 4.53a17.3 17.3 0 0 0 4.54-.08c.55-1.83 1.08-3.66 1.66-5.47.9-2.81 1.76-5.62 2.76-8.39 1.43-4 2.58-8.09 4-12.1.32-.88 1-2.08-.37-2.07-2.81 0-5.66-.08-8.46.22a4.35 4.35 0 0 0-.85 2c-1 4-1.65 8.08-2.75 12.07-1 3.75-1.51 7.62-2.26 11.43-.28 1.41.33 2.18 1.73 2.39m58.62 16.78a36 36 0 0 0-5.17.88 1.71 1.71 0 0 0-1.38 1.28 16 16 0 0 1-1.06 2.76 7.34 7.34 0 0 1-5.67 4.29 6.6 6.6 0 0 1-1.09 0c-4.08-.27-7.64-4.18-9.61-7.4-.75-1.23-1.34-2.51-2-3.78a15.9 15.9 0 0 0-5.6 3 2 2 0 0 0-.75 1.53 12.7 12.7 0 0 0 1.52 6.29 23.1 23.1 0 0 0 7.36 8.76 16.7 16.7 0 0 0 6.79 2.94c6 1 11.91-4.12 14.9-8.79a28.6 28.6 0 0 0 3.34-9.33c.18-.81.18-1.68.38-2.5a7.7 7.7 0 0 0-1.96.07m48.39-26.9c-1.09.09-2.17.15-3.26.25a2 2 0 0 0-1.75 1.41 25 25 0 0 0-1 4.56c-2.14 12.57-4.26 25.17-5.76 37.83a4.6 4.6 0 0 0 0 1.74c.36 1.41 2.35 1.9 3.59 2.17.4.09 4.64.62 4.67.34.26-2.28.57-4.57.76-6.86 1-11.31 2.66-22.53 3.33-33.88.14-2.4 0-4.84.24-7.23a.85.85 0 0 0-.82-.33m179.17-3.89c-1-8.74-8.53-19.74-18.66-16.18a17.9 17.9 0 0 0-8.3 6.6 15.7 15.7 0 0 0-1.58 2.79c-.09.21-.22.39 0 .64 0 1 2.92 1.73 3.53 1.95l4.53 1.65a2 2 0 0 0 1 .18.6.6 0 0 0 .25-.1c.63-.43 1.28-1.92 1.81-2.39a7.3 7.3 0 0 1 2.83-1.54c4.56-1.36 7.36 4.4 7.28 8.08a2.17 2.17 0 0 0 .26 1.41c.54.67 6.3 2.4 6.62 1.74.79-1.46.6-3.26.43-4.83m-82.21 11.34c2.1 1.25 4.46 1.29 6.79 1.53a.63.63 0 0 0 .72-.37 47 47 0 0 0 1-5.77c.13-1.79.41-3.56.68-5.33.31-2 .48-4 .89-6 .31-1.47.56-3 .82-4.44.41-2.34.93-4.66 1.12-7a6 6 0 0 0 .15-1.34 1.5 1.5 0 0 0-.9-.34 12.45 12.45 0 0 0-6.23.51 2 2 0 0 0-1.39 1.54c-.8 2.92-1.14 5.94-1.88 8.88-1.32 5.21-2 10.56-3 15.84a2.41 2.41 0 0 0 1.23 2.29M220 348.78c2 .85 4 1.94 6 2.69a.7.7 0 0 0 .67 0 7.3 7.3 0 0 1 4.49-1 7.06 7.06 0 0 1 3.87 1.47 10.73 10.73 0 0 1 4.09 6.44 1 1 0 0 0 1.09.92 16.8 16.8 0 0 0 7.06-1.62 19 19 0 0 0-2.21-6.11 19.8 19.8 0 0 0-3.82-5.07c-3.85-3.63-9.78-6.24-15-4-2.6 1.1-4.73 3.32-6.54 5.42a.55.55 0 0 0 .3.86m-101.16 2.14a44.6 44.6 0 0 1 4.81 8.82c.79 1.73 1.27 3.56 1.92 5.33a33 33 0 0 1 1.47 4.4c1 4.53 2.23 9 2.94 13.58.08.56.26 1.07.89 1.15a4.5 4.5 0 0 0 1.9 0c1.34-.38 2.68-.72 4-1.11a3.75 3.75 0 0 0 1.44-.65c.41-.34-.36-4.13-.48-4.81a51 51 0 0 0-1.14-5 78 78 0 0 0-3.26-9.72 70.3 70.3 0 0 0-13.93-21.36 1.36 1.36 0 0 0-1-.3 1.58 1.58 0 0 0-1 .54 23.5 23.5 0 0 0-1.85 2.59 1.87 1.87 0 0 0 .06 2.57c1.01 1.44 2.19 2.64 3.21 3.97Zm197.92 54.49c-.69-12-1.5-27.66-14.19-33.5a14.16 14.16 0 0 0-8.22.61 24.3 24.3 0 0 0-10.93 8.31 36.8 36.8 0 0 0-6.25 11.73 73.5 73.5 0 0 0-3.25 12.72 12.7 12.7 0 0 0-.33 3.63c.09.65.1 1.42 1 1.61a28.8 28.8 0 0 0 6.75.46 1.9 1.9 0 0 0 1.37-.46 10.1 10.1 0 0 1 .39-3.75 48 48 0 0 1 4.06-12.44c2-4.35 6.86-10.93 12.44-9.76 2.56.53 4.51 2.76 5.64 5 2.15 4.27 2.62 9.45 2.32 14.16-.09 1.51 0 3-.16 4.52-.15 1.74.13 2.81 2.43 2.83s4.67.64 6.84-.67c.61-.37.14-4.28.1-5ZM335 361.54c-1 .07-2.08-.08-2.6.89a16.8 16.8 0 0 0-.93 4.19c-.31 1.55-.62 3.1-.91 4.65a21 21 0 0 1-.65 3.3c-.2 1.17-.37 2.34-.53 3.51-.3 2.3-.53 4.61-.75 6.92-.46 4.65-1.09 9.26-1.74 13.9-.45 3.24-1.32 6.69-1.06 10 .09 1.27.19 1.4 1.41 1.64 1.49.28 3 .57 4.49.72a7 7 0 0 0 3.37-.46 26 26 0 0 0 .6-2.86c1.33-6.1 1.67-12.48 2.57-18.66q.86-5.79 1.7-11.6c.68-4.68 1.12-9.48 3-13.89a3.7 3.7 0 0 0 .36-1.22c-.51-.11-1-.24-1.55-.34a25.6 25.6 0 0 0-6.78-.69m27.32 8.63a.83.83 0 0 0-.85-.3c-1 .09-2 .16-3 .3a1.28 1.28 0 0 0-1 .72 10.5 10.5 0 0 0-.56 1.66c-.51 2.27-.51 4.62-1.05 6.87-1.21 4.94-1.78 10-2.62 15-.78 4.64-1.26 9.33-1.87 14a2.24 2.24 0 0 0 1.3 2.24 11.8 11.8 0 0 0 5.69.92c.54-.4.4-1.05.42-1.54.38-8.58 1.9-17.1 2.69-25.64.22-2.35.41-4.71.59-7.06.15-2 .59-4.12.18-6.07a3.8 3.8 0 0 1 .05-1.1Zm-103 5.84a23 23 0 0 1-2.26 1.64 14.7 14.7 0 0 0-2.17 2 .46.46 0 0 0-.14.43 23.6 23.6 0 0 1-.87 9.71c-1.14 3.58-2.9 7-6.21 9-4.33 2.63-9.69 1.88-12.64-2.3a3.6 3.6 0 0 0-2.51-1.55 33.3 33.3 0 0 0-6-.12 3.7 3.7 0 0 0-1.87.67c-3.25 2.11 1.37 8.53 3.12 10.34a16.2 16.2 0 0 0 10.43 4.93 14.3 14.3 0 0 0 3.32-.17 27 27 0 0 0 22.38-24.24c.36-3.86.38-8.47-2-11.75a7.35 7.35 0 0 0-2.61 1.4Zm-25.61 1a22.2 22.2 0 0 0 7.6-6.1 52.5 52.5 0 0 0 3.95-5.92 2.92 2.92 0 0 0-1.65-.73c-1.27-.29-2.59-.33-3.85-.57a2.26 2.26 0 0 0-2.73 1.25 7.2 7.2 0 0 1-3.49 3.16 2.42 2.42 0 0 1-2.21.68c-2.79-.12-4.39-1.92-5.76-4.12-1.2-1.91-1.45-4.06-1.77-6.19-.05-.37-.53-.67-.2-1.1a19.6 19.6 0 0 0-5.49 1.28 1.29 1.29 0 0 0-.81 1.09 13.64 13.64 0 0 0 1 7.57 14.6 14.6 0 0 0 3.85 5.81 16.24 16.24 0 0 0 11.53 3.88Zm24.62-33.52a14.75 14.75 0 0 0-11.87-.57c-.53.22-.66.45-.45 1a30 30 0 0 0 3.85 6.87.9.9 0 0 0 1 .42 8.18 8.18 0 0 1 5.59 1.15 4.59 4.59 0 0 1 2.14 5.89 27 27 0 0 1-5.2 7.59 1.35 1.35 0 0 0-.31 1.84 11 11 0 0 0 4.37 4.2c.48.26.93.65 1.54.53 1.18-.22 2.49-2.27 3.16-3.13a27 27 0 0 0 2.63-4.12 18.6 18.6 0 0 0 2.28-9.28c-.33-5.33-4.06-10.12-8.76-12.4Zm-84.1-1.9a15.26 15.26 0 0 0-13 5.19c-4.22 4.91-5.4 11.67-6.45 17.91s-2.26 12.35-3.11 18.58l-2 15c-.45 3.34-1.34 6.58-1 10 .12 1.27.2 1.4 1.42 1.63 1.49.29 3 .57 4.49.73a7.35 7.35 0 0 0 3.37-.46c.1-1 .69-1.82.72-2.83.1-3 .75-5.91 1.13-8.85.43-3.26.84-6.51 1.27-9.77.84-6.42 1.77-12.84 3.09-19.18.65-3.14 1.14-6.67 2.59-9.56 1.94-3.82 7.18-9.44 11.28-4.46a7 7 0 0 0 .93 1.08c1.58 1.22 5 1.14 6.93 1.37a4 4 0 0 0 2.65-.18 14.8 14.8 0 0 0-1.25-4.67c-2.19-5.59-6.88-10.86-13.09-11.54Z" style="fill:none"/></clipPath><style>.cls-2{fill:#d39848}</style></defs><path d="M181.29 410.91c-.29-.14.63-5.48.69-6.07q.36-3.07.68-6.13c0-4.2 1-8.51 1.3-12.69s.65-8.32.86-12.49c.09-1.72.07-3.44.23-5.15 0-.47.43-5.43.57-5.44 1.42-.12 2.42.86 3.6 1.36 1.68.7 2 1.92 1.77 3.65-.55 4.15-.74 8.37-1.16 12.54-.71 7-1.19 14-2.06 21-.16 1.26-.32 2.52-.47 3.78-.09.74 0 2.3-.64 2.8a23.6 23.6 0 0 1-4.76 2.77.69.69 0 0 1-.61.07m177.02.68c.54-.41.4-1.06.42-1.55.28-6.35 1-12.67 1.71-19 .37-3.15.75-6.31 1.08-9.48a74 74 0 0 0 .81-9.05 6.6 6.6 0 0 0-.14-1.25 3.8 3.8 0 0 1 .1-1.1c1.19-.12 2 .68 3 1.13a2.48 2.48 0 0 1 1.66 2.9c-.46 4-.74 8-1.11 12-.38 4.21-1 8.39-1.22 12.62a47.5 47.5 0 0 1-.82 7.13 15 15 0 0 0-.23 2.22 1.41 1.41 0 0 1-.73 1.23 21.8 21.8 0 0 1-3.82 2.15c-.21.11-.45.31-.71.05M138.2 382.46c-.16-1.68-.25-3.38-.52-5a42 42 0 0 0-1.1-5 45 45 0 0 0-2.67-7.45c-2-4.18-3.87-8.49-6.09-12.58-1.14-2.11-3.5-3.51-4.92-5.44s-2-3.71-3.51-5.36a1.36 1.36 0 0 0-1-.3 1.09 1.09 0 0 1 1.06-.41c1.93.39 3.91.61 5.61 1.71a15.5 15.5 0 0 1 3.18 3.24c7 8.26 10.79 18.88 13.21 29.29a6.42 6.42 0 0 1-1.35 5.62 3.64 3.64 0 0 1-1.9 1.68m19.71 27.68c.1-1 .45-1.82.48-2.83.13-4 1-8.09 1.45-12 .77-6.08 1.91-12.14 2.93-18.18.78-4.61 1.13-9.44 2.62-14 1.3-3.94 3.67-8.83 8.32-9.5.74-.1 2-.18 2.49.36-2-.5-4.52.66-5.86 2.21a13.7 13.7 0 0 0-2.52 5.54 82 82 0 0 0-2 12c-1.08 9.78-1.42 19.62-2.85 29.35-.2 1.4-.26 2.81-.52 4.2a1.38 1.38 0 0 1-.42.84 8.54 8.54 0 0 1-4.12 2.01m177.16.64c.1-1 .69-1.82.72-2.83.07-2.25.67-4.44.89-6.68.5-5.36 1.36-10.68 2.06-16s1.14-10.43 2.17-15.59a34 34 0 0 1 .74-3.52c.28-.87.89-1.55 1.25-2.38a3.7 3.7 0 0 0 .36-1.22c.16 0 .32 0 .48.07 1.1.26 1.24.52 1 1.6a79.5 79.5 0 0 0-1.87 11.4c-.32 3.63-.77 7.25-1 10.88-.14 1.81-.21 3.62-.37 5.42-.24 2.59-.49 5.19-.86 7.77-.17 1.27-.17 2.56-.44 3.8-.31 1.47-.32 3-.56 4.43a1.28 1.28 0 0 1-.42.84 8.4 8.4 0 0 1-4.15 2.01m-264.45-.47c.36-.28.78-.09 1.15-.1 6.67-.17 13.92-2.88 18.48-7.88a33.44 33.44 0 0 0 7.4-14.33 21 21 0 0 0 .54-4.32 35 35 0 0 0-.34-7.58 18 18 0 0 0-1.56-4.28c-.48-1-1.11-2.9-2.07-3.51a2.33 2.33 0 0 0-1.69-.11 5.84 5.84 0 0 1 3.34-1.14 2.47 2.47 0 0 1 1.34.29 2.9 2.9 0 0 1 .89 1c5.85 9.46 4.06 21.18-1.9 30.11a29.9 29.9 0 0 1-6.56 7.27 26.5 26.5 0 0 1-7.27 3.82 10.3 10.3 0 0 1-2.58.81c-1 .07-2 .11-2.93.25a18.3 18.3 0 0 1-6-.18c-.11-.01-.17-.08-.24-.12m246.06.08a20.6 20.6 0 0 1-.53-3.14c-.84-7.13-.35-13.66-2.72-20.49a26.2 26.2 0 0 0-2.61-5.69c-1.48-2.29-2.74-5-4.72-6.94a12.5 12.5 0 0 0-3.55-2.22 11.7 11.7 0 0 0 2 .35 14 14 0 0 1 2.21.72 20 20 0 0 1 3.58 2.1 20.9 20.9 0 0 1 8.44 11.71c1.35 4.85 1.38 9.94 1.59 14.93a25.7 25.7 0 0 1-.15 5.19 4.4 4.4 0 0 1-.31 1.18c-.59 1.22-1.97 1.82-3.23 2.3m-27.44-39.17a47 47 0 0 0 1-5.77c.13-1.79.41-3.56.68-5.33.31-2 .48-4 .89-6 .31-1.47.56-3 .82-4.44.41-2.34.93-4.66 1.12-7a6 6 0 0 0 .15-1.34 22 22 0 0 1 3.41 2.35 1.06 1.06 0 0 1 .36 1.14c-.55 3.28-1.17 6.55-1.63 9.85-.39 2.87-.63 5.77-1.22 8.61-.35 1.67-.65 3.34-.93 5a1 1 0 0 1-.38.77 17 17 0 0 1-4.27 2.16m-51.06 39.55c1.15-.14 2.3-.36 3.45-.4a13.6 13.6 0 0 0 2.56-.55c5.54-1.33 9.81-4.61 13.37-9.12a29.24 29.24 0 0 0 6.13-17.06c.1-3 .05-6.46-1.82-9 .75-.31 1.41.16 2.1.29 1.79.34 2.21 1.71 2.54 3.31 1.68 8.23-.76 15.46-5.33 22.15a24.52 24.52 0 0 1-12.05 9.48 19 19 0 0 1-5.11 1.09 21.7 21.7 0 0 1-5.34 0c-.18-.04-.38.04-.5-.19M82.3 372.65c.55-1.83 1.08-3.66 1.66-5.47.9-2.81 1.76-5.62 2.76-8.39.78-2.17 1.48-4.37 2.18-6.56.35-1.07.69-2.14 1-3.21.41-1.26 1.57-3.52-.19-4a13 13 0 0 0-2.65-.38 35 35 0 0 0-5.22.18 7.5 7.5 0 0 1 5.16-2.7c1.68-.22 3.35-.07 5-.16a2.32 2.32 0 0 1 2.1 2.79c-.69 2.35-1.59 4.63-2.34 7-1.08 3.37-2 6.8-3.2 10.12-1 2.75-1.74 5.6-2.89 8.29a4.34 4.34 0 0 1-3.37 2.49m200.38 37.87a10.1 10.1 0 0 1 .39-3.75 48 48 0 0 1 4.06-12.44c1.72-3.69 4-7.8 7.5-10a7.1 7.1 0 0 1 3.07-.67c1.16-.16 2.63.91 3.71 1.51.25.14.58.17.64.53-3.26-1.09-5.18 0-7.19 2.16a20.4 20.4 0 0 0-3.69 6.23 61.6 61.6 0 0 0-3.17 8.19c-.4 1.48-.57 3-.83 4.51a3.54 3.54 0 0 1-1.86 2.61c-.63.35-1.27.69-1.93 1-.2.11-.38.41-.7.12m80.9-46.97a6.6 6.6 0 0 0 0-3.69c-1.89-8.86-4.56-14.22-11.59-17.35a16 16 0 0 0-2.06-.61 10.5 10.5 0 0 1 4.71.52 19.9 19.9 0 0 1 8.23 5.15 19.3 19.3 0 0 1 4.81 8.7 15.8 15.8 0 0 1 1 6c-.05.49-.1.77-.66.85a14.4 14.4 0 0 1-4.44.43m-104.66 8.86c1.66-.92 2.62-2.5 3.72-4 1.55-2 2.15-4.37 3-6.69 1-3 1.73-6.28.42-9.47a15.6 15.6 0 0 0-5.43-7.15 32 32 0 0 0-7-3.09 15.9 15.9 0 0 1 7.06 1.61 18.8 18.8 0 0 1 6.83 6.54 10.36 10.36 0 0 1 1.49 4.83 21.63 21.63 0 0 1-2.39 11.28 32.3 32.3 0 0 1-3.52 5.62 1.82 1.82 0 0 1-1.58.77 14 14 0 0 1-2.6-.25m-139.87 37.48c1.53.44 6.18-.69 7.53-1.32a18.5 18.5 0 0 0 5.43-3.88c3.43-3.53 4.92-8.06 6-12.76.18-.81.18-1.68.38-2.5 1.47.13 2 .9 1.77 2.32a30 30 0 0 1-4.47 11.25 19.5 19.5 0 0 1-7.85 6.45 15.46 15.46 0 0 1-8.79.44m69.45-52.13a14.8 14.8 0 0 0-1.25-4.67 22.3 22.3 0 0 0-5.18-7.76c-2.13-2.14-6.6-3.23-9.58-3.62a.3.3 0 0 1-.27-.24c8.45-1.09 17 5.94 18.66 14.08a.77.77 0 0 1-.2.81 4.5 4.5 0 0 1-2.18 1.4m58.79-.14a19 19 0 0 0-2.21-6.11 19.8 19.8 0 0 0-3.82-5.07 15.76 15.76 0 0 0-8.4-4.44 6.6 6.6 0 0 0-3.16-.07.78.78 0 0 1-.83-.12 12.3 12.3 0 0 1 5.52-.3 14.7 14.7 0 0 1 6.85 2.79 19.2 19.2 0 0 1 4 4.26 18.3 18.3 0 0 1 3 6.05 2.71 2.71 0 0 1-.95 3.01M122 398.69c-1-.06-2.73 0-3.6-.49-2.76-1.61-4.32-4.09-6-6.86-.75-1.23-1.34-2.51-2-3.78a.57.57 0 0 1 .46-.28 2.71 2.71 0 0 1 2.66 1.56 26.3 26.3 0 0 0 5.62 8.16 9.1 9.1 0 0 0 2.86 1.69m111.51-30.6a2.42 2.42 0 0 1-2.21.68c-2.79-.12-4.39-1.92-5.76-4.12-1.2-1.91-1.45-4.06-1.77-6.19-.05-.37-.53-.67-.2-1.1a1.84 1.84 0 0 1 1.88 1.58 17.8 17.8 0 0 0 2.84 6.81 6.56 6.56 0 0 0 3.89 2.45 3.8 3.8 0 0 0 1.33-.11m.17 8.91a22.2 22.2 0 0 0 7.6-6.1 54 54 0 0 0 3.95-5.92c.47.17.73.6 1.08.92s.07.64-.1.92a35 35 0 0 1-2.76 3.86 19.2 19.2 0 0 1-8.3 6.17 2.83 2.83 0 0 1-1.47.15m111.16-20.66a6.9 6.9 0 0 1 4.58-4 2.4 2.4 0 0 1 1.35-.12 8.7 8.7 0 0 0-4.15 3.59c-.48.82-.8.94-1.78.53m-108.28 54.31c.38-.2.76-.31 1.11.07a1.9 1.9 0 0 1-1.11-.07" class="cls-2"/><path d="M119.05 409.89c.16 0 .31 0 .4.13-.19.12-.3-.02-.4-.13" class="cls-2"/><g style="clip-path:url(#clip-path)"><path d="M77.76 372.73a17.3 17.3 0 0 0 4.54-.08c.55-1.83 1.08-3.66 1.66-5.47.9-2.81 1.76-5.62 2.76-8.39 1.43-4 2.58-8.09 4-12.1.32-.88 1-2.08-.37-2.07-2.81 0-5.66-.08-8.46.22a4.35 4.35 0 0 0-.85 2c-1 4-1.65 8.08-2.75 12.07-1 3.75-1.51 7.62-2.26 11.43-.28 1.41.33 2.18 1.73 2.39m107-10.12c-1.09.09-2.17.15-3.26.25a2 2 0 0 0-1.75 1.41 25 25 0 0 0-1 4.56c-2.13 12.57-4.25 25.17-5.75 37.83a4.6 4.6 0 0 0 0 1.74c.36 1.41 2.35 1.9 3.59 2.17.4.09 4.64.62 4.67.34.26-2.28.57-4.57.76-6.86 1-11.31 2.66-22.53 3.33-33.88.14-2.4 0-4.84.24-7.23a.85.85 0 0 0-.82-.33Zm-48.39 26.9a36 36 0 0 0-5.17.88 1.71 1.71 0 0 0-1.38 1.28 16 16 0 0 1-1.06 2.76 7.34 7.34 0 0 1-5.67 4.29 6.6 6.6 0 0 1-1.09 0c-4.08-.27-7.64-4.18-9.61-7.4-.75-1.23-1.34-2.51-2-3.78a15.9 15.9 0 0 0-5.6 3 2 2 0 0 0-.75 1.53 12.7 12.7 0 0 0 1.52 6.29 23.1 23.1 0 0 0 7.36 8.76 16.7 16.7 0 0 0 6.79 2.94c6 1 11.91-4.12 14.9-8.79a28.6 28.6 0 0 0 3.34-9.33c.18-.81.18-1.68.38-2.5a7.7 7.7 0 0 0-1.95.07ZM92.48 368.2c-2 .36-6.92 3.18-5.4 5.73a14.6 14.6 0 0 1 1.8 8.71c-.34 5-2 10.16-5.79 13.6-3.34 3-8.34 4.8-12.35 1.94-1.6-1.15-2.56-3-4.3-4a8.05 8.05 0 0 0-3.75-.84 19 19 0 0 0-4.19.35 3.63 3.63 0 0 0-1.8.73c-1 .88-.91 2.44-.57 3.72A16.45 16.45 0 0 0 66.28 409c.42.16.85.3 1.28.43a21.26 21.26 0 0 0 13.78-.88 27.27 27.27 0 0 0 13.87-12.59c4.2-8.42 4.65-21.41-.35-26.9a2.1 2.1 0 0 0-2.38-.86m189.25 1.86c2.1 1.25 4.46 1.29 6.79 1.53a.63.63 0 0 0 .72-.37 47 47 0 0 0 1-5.77c.13-1.79.41-3.56.68-5.33.31-2 .48-4 .89-6 .31-1.47.56-3 .82-4.44.41-2.34.93-4.66 1.12-7a6 6 0 0 0 .15-1.34 1.5 1.5 0 0 0-.9-.34 12.45 12.45 0 0 0-6.23.51 2 2 0 0 0-1.39 1.54c-.8 2.92-1.14 5.94-1.88 8.88-1.32 5.21-2 10.56-3 15.84a2.41 2.41 0 0 0 1.23 2.29m-162.91-19.14a44.6 44.6 0 0 1 4.81 8.82c.79 1.73 1.27 3.56 1.92 5.33a33 33 0 0 1 1.47 4.4c1 4.53 2.23 9 2.94 13.58.08.56.26 1.07.89 1.15a4.5 4.5 0 0 0 1.9 0c1.34-.38 2.68-.72 4-1.11a3.75 3.75 0 0 0 1.44-.65c.41-.34-.36-4.13-.48-4.81a51 51 0 0 0-1.14-5 78 78 0 0 0-3.26-9.72 70.3 70.3 0 0 0-13.93-21.36 1.36 1.36 0 0 0-1-.3 1.58 1.58 0 0 0-1 .54 23.5 23.5 0 0 0-1.85 2.59 1.87 1.87 0 0 0 .06 2.57c1.03 1.44 2.21 2.64 3.23 3.97M220 348.78c2 .85 4 1.94 6 2.69a.7.7 0 0 0 .67 0 7.3 7.3 0 0 1 4.49-1 7.06 7.06 0 0 1 3.87 1.47 10.73 10.73 0 0 1 4.09 6.44 1 1 0 0 0 1.09.92 16.8 16.8 0 0 0 7.06-1.62 19 19 0 0 0-2.21-6.11 19.8 19.8 0 0 0-3.82-5.07c-3.85-3.63-9.78-6.24-15-4-2.6 1.1-4.73 3.32-6.54 5.42a.55.55 0 0 0 .3.86m115 12.76c-1 .07-2.08-.08-2.6.89a16.8 16.8 0 0 0-.93 4.19c-.31 1.55-.62 3.1-.91 4.65a21 21 0 0 1-.65 3.3c-.2 1.17-.37 2.34-.53 3.51-.3 2.3-.53 4.61-.75 6.92-.46 4.65-1.09 9.26-1.74 13.9-.45 3.24-1.32 6.69-1.06 10 .09 1.27.19 1.4 1.41 1.64 1.49.28 3 .57 4.49.72a7 7 0 0 0 3.37-.46 26 26 0 0 0 .6-2.86c1.33-6.1 1.67-12.48 2.57-18.66q.86-5.79 1.7-11.6c.68-4.68 1.12-9.48 3-13.89a3.7 3.7 0 0 0 .36-1.22c-.51-.11-1-.24-1.55-.34a25.6 25.6 0 0 0-6.78-.69m-160.77-20a15.26 15.26 0 0 0-13 5.19c-4.22 4.91-5.4 11.67-6.45 17.91s-2.26 12.35-3.11 18.58l-2 15c-.45 3.34-1.34 6.58-1 10 .12 1.27.2 1.4 1.42 1.63 1.49.29 3 .57 4.49.73a7.35 7.35 0 0 0 3.37-.46c.1-1 .69-1.82.72-2.83.1-3 .75-5.91 1.13-8.85.43-3.26.84-6.51 1.27-9.77.84-6.42 1.77-12.84 3.09-19.18.65-3.14 1.14-6.67 2.59-9.56 1.94-3.82 7.18-9.44 11.28-4.46a7 7 0 0 0 .93 1.08c1.58 1.22 5 1.14 6.93 1.37a4 4 0 0 0 2.65-.18 14.8 14.8 0 0 0-1.25-4.67c-2.19-5.54-6.88-10.81-13.09-11.49Zm189.74 17.14c-1-8.74-8.53-19.74-18.66-16.18a17.9 17.9 0 0 0-8.3 6.6 15.7 15.7 0 0 0-1.58 2.79c-.09.21-.22.39 0 .64 0 1 2.92 1.73 3.53 1.95l4.53 1.65a2 2 0 0 0 1 .18.6.6 0 0 0 .25-.1c.63-.43 1.28-1.92 1.81-2.39a7.3 7.3 0 0 1 2.83-1.54c4.56-1.36 7.36 4.4 7.28 8.08a2.17 2.17 0 0 0 .26 1.41c.54.67 6.3 2.4 6.62 1.74.76-1.42.57-3.22.4-4.79Zm-47.2 46.69c-.69-12-1.5-27.66-14.19-33.5a14.16 14.16 0 0 0-8.22.61 24.3 24.3 0 0 0-10.93 8.31 36.8 36.8 0 0 0-6.25 11.73 73.5 73.5 0 0 0-3.25 12.72 12.7 12.7 0 0 0-.33 3.63c.09.65.1 1.42 1 1.61a28.8 28.8 0 0 0 6.75.46 1.9 1.9 0 0 0 1.37-.46 10.1 10.1 0 0 1 .39-3.75 48 48 0 0 1 4.06-12.44c2-4.35 6.86-10.93 12.44-9.76 2.56.53 4.51 2.76 5.64 5 2.15 4.27 2.62 9.45 2.32 14.16-.09 1.51 0 3-.16 4.52-.15 1.74.13 2.81 2.43 2.83s4.67.64 6.84-.67c.61-.37.14-4.28.1-5Zm45.55-35.24a.83.83 0 0 0-.85-.3c-1 .09-2 .16-3 .3a1.28 1.28 0 0 0-1 .72 10.5 10.5 0 0 0-.56 1.66c-.51 2.27-.51 4.62-1.05 6.87-1.21 4.94-1.78 10-2.62 15-.78 4.64-1.26 9.33-1.87 14a2.24 2.24 0 0 0 1.3 2.24 11.8 11.8 0 0 0 5.69.92c.54-.4.4-1.05.42-1.54.38-8.58 1.9-17.1 2.69-25.64.22-2.35.41-4.71.59-7.06.15-2 .59-4.12.18-6.07a3.8 3.8 0 0 1 .05-1.06Zm-104-26.69a14.75 14.75 0 0 0-11.87-.57c-.53.22-.66.45-.45 1a30 30 0 0 0 3.85 6.87.9.9 0 0 0 1 .42 8.18 8.18 0 0 1 5.59 1.15 4.59 4.59 0 0 1 2.14 5.89 27 27 0 0 1-5.2 7.59 1.35 1.35 0 0 0-.31 1.84 11 11 0 0 0 4.37 4.2c.48.26.93.65 1.54.53 1.18-.22 2.49-2.27 3.16-3.13a27 27 0 0 0 2.63-4.12 18.6 18.6 0 0 0 2.28-9.28c-.32-5.28-4.05-10.07-8.75-12.35ZM233.68 377a22.2 22.2 0 0 0 7.6-6.1 52.5 52.5 0 0 0 3.95-5.92 2.92 2.92 0 0 0-1.65-.73c-1.27-.29-2.59-.33-3.85-.57a2.26 2.26 0 0 0-2.73 1.25 7.2 7.2 0 0 1-3.49 3.16 2.42 2.42 0 0 1-2.21.68c-2.79-.12-4.39-1.92-5.76-4.12-1.2-1.91-1.45-4.06-1.77-6.19-.05-.37-.53-.67-.2-1.1a19.6 19.6 0 0 0-5.49 1.28 1.29 1.29 0 0 0-.81 1.09 13.64 13.64 0 0 0 1 7.57 14.6 14.6 0 0 0 3.85 5.81 16.24 16.24 0 0 0 11.56 3.89m25.61-1a23 23 0 0 1-2.26 1.64 14.7 14.7 0 0 0-2.17 2 .46.46 0 0 0-.14.43 23.6 23.6 0 0 1-.87 9.71c-1.14 3.58-2.9 7-6.21 9-4.33 2.63-9.69 1.88-12.64-2.3a3.6 3.6 0 0 0-2.51-1.55 33.3 33.3 0 0 0-6-.12 3.7 3.7 0 0 0-1.87.67c-3.25 2.11 1.37 8.53 3.12 10.34a16.2 16.2 0 0 0 10.43 4.93 14.3 14.3 0 0 0 3.32-.17 27 27 0 0 0 22.38-24.24c.36-3.86.38-8.47-2-11.75a7.35 7.35 0 0 0-2.58 1.41" style="fill:#f8c44f"/></g><path d="m127.21 294-4.09 2.13s2.58 12 7.2 12.65 13.69-1 17.66-4.27l-6.8-10Z" style="stroke:#ac6442;stroke-miterlimit:10;stroke-width:.52px;fill:url(#linear-gradient)"/><path d="m137.75 292.45 10.55 11.28s32-127.82-4.22-244.38a8.46 8.46 0 0 0-4.89-5.3l-10.72-4.34a1.18 1.18 0 0 0-1.6 1.27L141 142.56l5.09 44-2.54 45.11Z" style="stroke:#ac6442;stroke-miterlimit:10;stroke-width:.52px;fill:url(#linear-gradient-2)"/><path d="M172.75 214.2c1.49-19.32 9.22-78.57 48.63-105.57a3.28 3.28 0 0 0 1.16-4l-7.33-17.58L161.37 152v57.18l6.62 6.77a2.78 2.78 0 0 0 4.76-1.75Z" style="stroke:#ac6442;stroke-miterlimit:10;stroke-width:.52px;fill:url(#linear-gradient-3)"/><path d="M108.27 57.67s48.45 132.54 14.78 238.1a.3.3 0 0 0 .07.31c.84.91 6.2 5.82 18.06-1.61 12.74-8 20.48-169.27-10.21-241.88a7.79 7.79 0 0 0-7.47-4.74c-4.82.2-11.59 2.01-15.23 9.82Z" style="stroke:#ac6442;stroke-miterlimit:10;stroke-width:.52px;fill:url(#linear-gradient-4)"/><path d="M213.79 83a2.68 2.68 0 0 0-4.07-1.19c-11.72 8.47-56.22 44.12-60.32 97.13-4.27 55.06 62.37 99.81 75.6 108.12a2.67 2.67 0 0 0 3.68-.82l6.87-10.69a2.67 2.67 0 0 0-.89-3.76c-12.1-7.07-65.19-40.33-63.9-79.21a28 28 0 0 0-.17-4.13c-.8-10.37-2.81-56.2 46.4-91.86a2.66 2.66 0 0 0 .93-3.14Z" style="stroke:#ac6442;stroke-miterlimit:10;stroke-width:.52px;fill:url(#linear-gradient-5)"/><path d="m374.93 148.93 2.31-2.93a1 1 0 0 1 1.68.27c.16.4.29.76.33.9.55 1.86 1.06 3.73 1.44 5.63a55.4 55.4 0 0 1 1.07 11.56 2.91 2.91 0 0 1-1.5 2.9c-4.19 3.17-11.79 6.23-16.28 8.76-5.63 3.18 10.95-27.09 10.95-27.09Z" style="stroke:#ac6442;stroke-miterlimit:10;stroke-width:.52px;fill:url(#linear-gradient-6)"/><path d="M369.66 163.57c1-.47 2.71-6.55 3.1-7.53 1.4-3.46 3.51-6.12 4.19-9.77a191.9 191.9 0 0 1-49.3 26.25c-8.23 2.91-16.77 4.71-25 7.47-4.58 1.53-9.22 2.89-13.8 4.41-4 1.34-9.58 4.59-13.76 4.77l20.77-.93 16.2-4.12 35.43-10.44Z" style="stroke:#ac6442;stroke-miterlimit:10;stroke-width:.52px;fill:url(#linear-gradient-7)"/><path d="m223.89 209-10.19 11.5a2.5 2.5 0 0 0-.81 2.22l1.75 12.7a2.47 2.47 0 0 0 4.38 1.21l9.7-12.1a1.39 1.39 0 0 0 .26-1.24l-2.62-9.29c-.51-1.81-1.08-6.29-2.47-5Z" style="stroke:#ac6442;stroke-miterlimit:10;stroke-width:.52px;fill:url(#linear-gradient-8)"/><path d="m386.07 64.16 11.35 9a.34.34 0 0 1 .09.43l-7 13.69a.33.33 0 0 1-.35.18l-11.57-1.41a.39.39 0 0 1-.28-.2l-4.07-8.53a.35.35 0 0 1 .05-.38l11.3-12.74a.36.36 0 0 1 .48-.04Z" style="stroke:#ac6442;stroke-miterlimit:10;stroke-width:.52px;fill:url(#linear-gradient-9)"/><path d="m267 279-4.5 1.8a.55.55 0 0 0-.33.62l2.73 13.73a1.78 1.78 0 0 0 1.76 1.43l20.07-.22a.51.51 0 0 0 .49-.54l-2.33-24.95Z" style="stroke:#ac6442;stroke-miterlimit:10;stroke-width:.52px;fill:url(#linear-gradient-10)"/><path d="m374.19 73.05 15 14a2.4 2.4 0 0 0 1.21.46c-4.23-.39-8.26.79-12.33 1.81q-6.45 1.62-12.77 3.7a188 188 0 0 0-24.62 10c-10.45 5.14-21.28 13.32-26.46 24.07-5.85 12.17-4.05 28.48-3.91 41.57.17 16.51-.52 33-1.91 49.48-1.31 15.47-2.24 31.88-6.47 46.8-3.18 11.24-5.92 23.85-14.65 31.39a36 36 0 0 1-.66-3.62c-1.06-8.16-2.71-16.29-4.08-24.41a.5.5 0 0 1 0-.17l8.62-78.48a.13.13 0 0 0 0-.06l.93-59.12a.7.7 0 0 1 .09-.32l19.48-32a.7.7 0 0 1 .31-.26l61.57-25a.61.61 0 0 1 .65.16Z" style="stroke:#ac6442;stroke-miterlimit:10;stroke-width:.52px;fill:url(#linear-gradient-11)"/><path d="M262.06 281c1.56 0 3.31-1.93 4.31-2.95 3.28-3.34 4.32-7.24 5.08-11.73.64-3.77.9-7.57 1.21-11.37 2.92-35.81 3.17-71.78 5.59-107.62.89-13.25.76-26.48 4.78-39.27 3.75-11.93 14.64-20.56 25.54-26.11 19.12-9.74 43-15.54 64.22-17.63 2.2-.21 4.42-.28 6.63-.31 1.88 0 3.78-.13 5.67-.08.3 0 .65 0 .78.32a.8.8 0 0 1-.07.67c-1.18 2.88-2.39 5.75-3.58 8.62l-1.51 3.62c-.13.32-.71 1.21-.65 1.57 0-.18-34.76 7.87-38.4 9.06-20.92 6.84-37.58 21.52-42 43.68-2.51 12.46-2.27 25.38-2.38 38v.32c-.36 36.88-.48 75.33-12.48 110.63-.08.25.27 0 0 0l-16.35.4c-2.17.07-4.28.18-6.39.18Z" style="stroke:#ac6442;stroke-miterlimit:10;stroke-width:.52px;fill:url(#linear-gradient-12)"/><path d="M222.8 212.82c-.49-8 18.19-14.9 23.73-17.33 12.64-5.54 25.72-8.24 39.25-10.46 15.76-2.57 31.58-5.14 46.92-9.64a136.8 136.8 0 0 0 39.93-19.28 12.5 12.5 0 0 0-.61 3.7 36.4 36.4 0 0 1-1.55 9.67c-1.43 4.1-4.26 5.45-7.88 7.51-9.26 5.28-19.11 8.14-29.14 11.79-18 6.52-37.69 8.36-56.33 11.73-20.91 3.79-38.92 12.88-52.66 29.27 0 0-1.64-16.69-1.66-16.96Z" style="stroke:#ac6442;stroke-miterlimit:10;stroke-width:.52px;fill:url(#linear-gradient-13)"/></svg>